<svg xmlns="http://www.w3.org/2000/svg" viewBox="0 0 100 100">
  <!-- Dark space background -->
  <rect width="100" height="100" rx="18" fill="#030B1A"/>
  <!-- Heart shape -->
  <path d="M50 78 C50 78 18 56 18 34 C18 22 28 16 39 24 C43 27 47 32 50 36 C53 32 57 27 61 24 C72 16 82 22 82 34 C82 56 50 78 50 78Z" fill="#D4537E"/>
  <!-- Stars inside heart -->
  <circle cx="36" cy="37" r="2.2" fill="white" opacity="0.9"/>
  <circle cx="55" cy="30" r="1.6" fill="white" opacity="0.85"/>
  <circle cx="44" cy="52" r="1.2" fill="white" opacity="0.7"/>
  <circle cx="63" cy="44" r="1.8" fill="white" opacity="0.9"/>
  <circle cx="30" cy="49" r="1.2" fill="white" opacity="0.65"/>
  <circle cx="50" cy="42" r="1.4" fill="white" opacity="0.75"/>
  <circle cx="68" cy="35" r="1" fill="white" opacity="0.6"/>
  <!-- Gold sparkle top -->
  <text x="50" y="18" text-anchor="middle" font-size="13" fill="#FAC775">✦</text>
</svg>
